G04 #@! TF.FileFunction,Legend,Top*
%FSLAX46Y46*%
G04 Gerber Fmt 4.6, Leading zero omitted, Abs format (unit mm)*
G04 Created by KiCad (PCBNEW 4.0.7) date 11/11/17 18:30:26*
%MOMM*%
%LPD*%
G01*
G04 APERTURE LIST*
%ADD10C,0.100000*%
%ADD11C,0.150000*%
%ADD12C,0.120000*%
G04 APERTURE END LIST*
D10*
D11*
X80844000Y-94004000D02*
X80844000Y-84304000D01*
X85344000Y-84304000D02*
X80844000Y-84304000D01*
X85344000Y-94004000D02*
X80844000Y-94004000D01*
X85344000Y-94004000D02*
X85344000Y-84304000D01*
D12*
X74580000Y-88554000D02*
X75280000Y-88554000D01*
X75280000Y-89754000D02*
X74580000Y-89754000D01*
X70962000Y-89754000D02*
X70262000Y-89754000D01*
X70262000Y-88554000D02*
X70962000Y-88554000D01*
X73144000Y-93136000D02*
X72144000Y-93136000D01*
X72144000Y-91776000D02*
X73144000Y-91776000D01*
D11*
X83442000Y-72898000D02*
G75*
G03X83442000Y-72898000I-1400000J0D01*
G01*
X78870000Y-72898000D02*
G75*
G03X78870000Y-72898000I-1400000J0D01*
G01*
X74298000Y-72898000D02*
G75*
G03X74298000Y-72898000I-1400000J0D01*
G01*
X69726000Y-72898000D02*
G75*
G03X69726000Y-72898000I-1400000J0D01*
G01*
X65154000Y-72898000D02*
G75*
G03X65154000Y-72898000I-1400000J0D01*
G01*
X74473000Y-80975000D02*
X74473000Y-84125000D01*
X71323000Y-80975000D02*
X71323000Y-84125000D01*
X74473000Y-80975000D02*
X71323000Y-80975000D01*
X74473000Y-84125000D02*
X71323000Y-84125000D01*
X60143000Y-94004000D02*
X60143000Y-84304000D01*
X64643000Y-84304000D02*
X60143000Y-84304000D01*
X64643000Y-94004000D02*
X60143000Y-94004000D01*
X64643000Y-94004000D02*
X64643000Y-84304000D01*
X78616000Y-92456000D02*
G75*
G03X78616000Y-92456000I-1400000J0D01*
G01*
X78954381Y-86867905D02*
X79763905Y-86867905D01*
X79859143Y-86820286D01*
X79906762Y-86772667D01*
X79954381Y-86677429D01*
X79954381Y-86486952D01*
X79906762Y-86391714D01*
X79859143Y-86344095D01*
X79763905Y-86296476D01*
X78954381Y-86296476D01*
X78954381Y-85915524D02*
X78954381Y-85248857D01*
X79954381Y-85677429D01*
X74763334Y-88261143D02*
X74715715Y-88308762D01*
X74572858Y-88356381D01*
X74477620Y-88356381D01*
X74334762Y-88308762D01*
X74239524Y-88213524D01*
X74191905Y-88118286D01*
X74144286Y-87927810D01*
X74144286Y-87784952D01*
X74191905Y-87594476D01*
X74239524Y-87499238D01*
X74334762Y-87404000D01*
X74477620Y-87356381D01*
X74572858Y-87356381D01*
X74715715Y-87404000D01*
X74763334Y-87451619D01*
X75715715Y-88356381D02*
X75144286Y-88356381D01*
X75430000Y-88356381D02*
X75430000Y-87356381D01*
X75334762Y-87499238D01*
X75239524Y-87594476D01*
X75144286Y-87642095D01*
X70445334Y-88241143D02*
X70397715Y-88288762D01*
X70254858Y-88336381D01*
X70159620Y-88336381D01*
X70016762Y-88288762D01*
X69921524Y-88193524D01*
X69873905Y-88098286D01*
X69826286Y-87907810D01*
X69826286Y-87764952D01*
X69873905Y-87574476D01*
X69921524Y-87479238D01*
X70016762Y-87384000D01*
X70159620Y-87336381D01*
X70254858Y-87336381D01*
X70397715Y-87384000D01*
X70445334Y-87431619D01*
X70826286Y-87431619D02*
X70873905Y-87384000D01*
X70969143Y-87336381D01*
X71207239Y-87336381D01*
X71302477Y-87384000D01*
X71350096Y-87431619D01*
X71397715Y-87526857D01*
X71397715Y-87622095D01*
X71350096Y-87764952D01*
X70778667Y-88336381D01*
X71397715Y-88336381D01*
X72477334Y-91458381D02*
X72144000Y-90982190D01*
X71905905Y-91458381D02*
X71905905Y-90458381D01*
X72286858Y-90458381D01*
X72382096Y-90506000D01*
X72429715Y-90553619D01*
X72477334Y-90648857D01*
X72477334Y-90791714D01*
X72429715Y-90886952D01*
X72382096Y-90934571D01*
X72286858Y-90982190D01*
X71905905Y-90982190D01*
X73429715Y-91458381D02*
X72858286Y-91458381D01*
X73144000Y-91458381D02*
X73144000Y-90458381D01*
X73048762Y-90601238D01*
X72953524Y-90696476D01*
X72858286Y-90744095D01*
X81280095Y-74890381D02*
X81280095Y-75699905D01*
X81327714Y-75795143D01*
X81375333Y-75842762D01*
X81470571Y-75890381D01*
X81661048Y-75890381D01*
X81756286Y-75842762D01*
X81803905Y-75795143D01*
X81851524Y-75699905D01*
X81851524Y-74890381D01*
X82851524Y-75890381D02*
X82280095Y-75890381D01*
X82565809Y-75890381D02*
X82565809Y-74890381D01*
X82470571Y-75033238D01*
X82375333Y-75128476D01*
X82280095Y-75176095D01*
X76708095Y-74890381D02*
X76708095Y-75699905D01*
X76755714Y-75795143D01*
X76803333Y-75842762D01*
X76898571Y-75890381D01*
X77089048Y-75890381D01*
X77184286Y-75842762D01*
X77231905Y-75795143D01*
X77279524Y-75699905D01*
X77279524Y-74890381D01*
X77708095Y-74985619D02*
X77755714Y-74938000D01*
X77850952Y-74890381D01*
X78089048Y-74890381D01*
X78184286Y-74938000D01*
X78231905Y-74985619D01*
X78279524Y-75080857D01*
X78279524Y-75176095D01*
X78231905Y-75318952D01*
X77660476Y-75890381D01*
X78279524Y-75890381D01*
X72136095Y-74890381D02*
X72136095Y-75699905D01*
X72183714Y-75795143D01*
X72231333Y-75842762D01*
X72326571Y-75890381D01*
X72517048Y-75890381D01*
X72612286Y-75842762D01*
X72659905Y-75795143D01*
X72707524Y-75699905D01*
X72707524Y-74890381D01*
X73088476Y-74890381D02*
X73707524Y-74890381D01*
X73374190Y-75271333D01*
X73517048Y-75271333D01*
X73612286Y-75318952D01*
X73659905Y-75366571D01*
X73707524Y-75461810D01*
X73707524Y-75699905D01*
X73659905Y-75795143D01*
X73612286Y-75842762D01*
X73517048Y-75890381D01*
X73231333Y-75890381D01*
X73136095Y-75842762D01*
X73088476Y-75795143D01*
X67564095Y-74890381D02*
X67564095Y-75699905D01*
X67611714Y-75795143D01*
X67659333Y-75842762D01*
X67754571Y-75890381D01*
X67945048Y-75890381D01*
X68040286Y-75842762D01*
X68087905Y-75795143D01*
X68135524Y-75699905D01*
X68135524Y-74890381D01*
X69040286Y-75223714D02*
X69040286Y-75890381D01*
X68802190Y-74842762D02*
X68564095Y-75557048D01*
X69183143Y-75557048D01*
X62992095Y-74890381D02*
X62992095Y-75699905D01*
X63039714Y-75795143D01*
X63087333Y-75842762D01*
X63182571Y-75890381D01*
X63373048Y-75890381D01*
X63468286Y-75842762D01*
X63515905Y-75795143D01*
X63563524Y-75699905D01*
X63563524Y-74890381D01*
X64515905Y-74890381D02*
X64039714Y-74890381D01*
X63992095Y-75366571D01*
X64039714Y-75318952D01*
X64134952Y-75271333D01*
X64373048Y-75271333D01*
X64468286Y-75318952D01*
X64515905Y-75366571D01*
X64563524Y-75461810D01*
X64563524Y-75699905D01*
X64515905Y-75795143D01*
X64468286Y-75842762D01*
X64373048Y-75890381D01*
X64134952Y-75890381D01*
X64039714Y-75842762D01*
X63992095Y-75795143D01*
X72136095Y-85456781D02*
X72136095Y-86266305D01*
X72183714Y-86361543D01*
X72231333Y-86409162D01*
X72326571Y-86456781D01*
X72517048Y-86456781D01*
X72612286Y-86409162D01*
X72659905Y-86361543D01*
X72707524Y-86266305D01*
X72707524Y-85456781D01*
X73612286Y-85456781D02*
X73421809Y-85456781D01*
X73326571Y-85504400D01*
X73278952Y-85552019D01*
X73183714Y-85694876D01*
X73136095Y-85885352D01*
X73136095Y-86266305D01*
X73183714Y-86361543D01*
X73231333Y-86409162D01*
X73326571Y-86456781D01*
X73517048Y-86456781D01*
X73612286Y-86409162D01*
X73659905Y-86361543D01*
X73707524Y-86266305D01*
X73707524Y-86028210D01*
X73659905Y-85932971D01*
X73612286Y-85885352D01*
X73517048Y-85837733D01*
X73326571Y-85837733D01*
X73231333Y-85885352D01*
X73183714Y-85932971D01*
X73136095Y-86028210D01*
X65365381Y-87121905D02*
X66174905Y-87121905D01*
X66270143Y-87074286D01*
X66317762Y-87026667D01*
X66365381Y-86931429D01*
X66365381Y-86740952D01*
X66317762Y-86645714D01*
X66270143Y-86598095D01*
X66174905Y-86550476D01*
X65365381Y-86550476D01*
X65793952Y-85931429D02*
X65746333Y-86026667D01*
X65698714Y-86074286D01*
X65603476Y-86121905D01*
X65555857Y-86121905D01*
X65460619Y-86074286D01*
X65413000Y-86026667D01*
X65365381Y-85931429D01*
X65365381Y-85740952D01*
X65413000Y-85645714D01*
X65460619Y-85598095D01*
X65555857Y-85550476D01*
X65603476Y-85550476D01*
X65698714Y-85598095D01*
X65746333Y-85645714D01*
X65793952Y-85740952D01*
X65793952Y-85931429D01*
X65841571Y-86026667D01*
X65889190Y-86074286D01*
X65984429Y-86121905D01*
X66174905Y-86121905D01*
X66270143Y-86074286D01*
X66317762Y-86026667D01*
X66365381Y-85931429D01*
X66365381Y-85740952D01*
X66317762Y-85645714D01*
X66270143Y-85598095D01*
X66174905Y-85550476D01*
X65984429Y-85550476D01*
X65889190Y-85598095D01*
X65841571Y-85645714D01*
X65793952Y-85740952D01*
X76454095Y-89408381D02*
X76454095Y-90217905D01*
X76501714Y-90313143D01*
X76549333Y-90360762D01*
X76644571Y-90408381D01*
X76835048Y-90408381D01*
X76930286Y-90360762D01*
X76977905Y-90313143D01*
X77025524Y-90217905D01*
X77025524Y-89408381D01*
X77549333Y-90408381D02*
X77739809Y-90408381D01*
X77835048Y-90360762D01*
X77882667Y-90313143D01*
X77977905Y-90170286D01*
X78025524Y-89979810D01*
X78025524Y-89598857D01*
X77977905Y-89503619D01*
X77930286Y-89456000D01*
X77835048Y-89408381D01*
X77644571Y-89408381D01*
X77549333Y-89456000D01*
X77501714Y-89503619D01*
X77454095Y-89598857D01*
X77454095Y-89836952D01*
X77501714Y-89932190D01*
X77549333Y-89979810D01*
X77644571Y-90027429D01*
X77835048Y-90027429D01*
X77930286Y-89979810D01*
X77977905Y-89932190D01*
X78025524Y-89836952D01*
M02*
