M48
;DRILL file {KiCad 4.0.7} date 11/11/17 18:30:25
;FORMAT={-:-/ absolute / metric / decimal}
FMAT,2
METRIC,TZ
T1C0.381
T2C1.000
%
G90
G05
M71
T1
X62.611Y-77.47
X62.611Y-81.47
X66.611Y-77.47
X66.611Y-81.47
X66.611Y-85.47
X70.611Y-77.47
X70.611Y-81.47
X70.611Y-85.47
X75.057Y-77.47
X75.184Y-81.407
X75.311Y-85.471
X78.867Y-77.47
X78.867Y-81.407
X78.867Y-85.471
X82.611Y-77.47
X82.611Y-81.47
T2
X63.754Y-72.898
X68.326Y-72.898
X72.898Y-72.898
X77.216Y-92.456
X77.47Y-72.898
X82.042Y-72.898
T0
M30
