G04 #@! TF.FileFunction,Copper,L1,Top,Signal*
%FSLAX46Y46*%
G04 Gerber Fmt 4.6, Leading zero omitted, Abs format (unit mm)*
G04 Created by KiCad (PCBNEW 4.0.7) date 11/11/17 18:30:26*
%MOMM*%
%LPD*%
G01*
G04 APERTURE LIST*
%ADD10C,0.100000*%
%ADD11C,0.762000*%
%ADD12R,4.500000X1.400000*%
%ADD13R,1.200000X0.750000*%
%ADD14R,1.200000X0.900000*%
%ADD15C,2.000000*%
%ADD16R,0.230000X0.950000*%
%ADD17C,0.250000*%
%ADD18C,1.400000*%
%ADD19C,0.127000*%
G04 APERTURE END LIST*
D10*
D11*
X78867000Y-85471000D03*
X75311000Y-85471000D03*
X70611000Y-85470000D03*
X66611000Y-85470000D03*
X82611000Y-81470000D03*
X78867000Y-81407000D03*
X75184000Y-81407000D03*
X70611000Y-81470000D03*
X66611000Y-81470000D03*
X62611000Y-81470000D03*
X82611000Y-77470000D03*
X78867000Y-77470000D03*
X75057000Y-77470000D03*
X70611000Y-77470000D03*
X66611000Y-77470000D03*
D12*
X83094000Y-86379000D03*
X83094000Y-89154000D03*
X83094000Y-91929000D03*
D13*
X73980000Y-89154000D03*
X75880000Y-89154000D03*
X71562000Y-89154000D03*
X69662000Y-89154000D03*
D14*
X71544000Y-92456000D03*
X73744000Y-92456000D03*
D15*
X82042000Y-72898000D03*
X77470000Y-72898000D03*
X72898000Y-72898000D03*
X68326000Y-72898000D03*
X63754000Y-72898000D03*
D16*
X72898000Y-80500000D03*
X72898000Y-84600000D03*
X72398000Y-84600000D03*
X71898000Y-84600000D03*
X73398000Y-84600000D03*
X73898000Y-84600000D03*
X72398000Y-80500000D03*
X71898000Y-80500000D03*
X73398000Y-80500000D03*
X73898000Y-80500000D03*
D12*
X62393000Y-86379000D03*
X62393000Y-89154000D03*
X62393000Y-91929000D03*
D15*
X77216000Y-92456000D03*
D11*
X62611000Y-77470000D03*
D17*
X73898000Y-84600000D02*
X74152000Y-88982000D01*
X74152000Y-88982000D02*
X73980000Y-89154000D01*
D18*
X84110000Y-89154000D02*
X76388000Y-89154000D01*
D17*
X71562000Y-89154000D02*
X71562000Y-92438000D01*
X71562000Y-92438000D02*
X71544000Y-92456000D01*
X71898000Y-84600000D02*
X71644000Y-89072000D01*
X71644000Y-89072000D02*
X71562000Y-89154000D01*
D18*
X69408000Y-89154000D02*
X61631000Y-89154000D01*
D17*
X77216000Y-92456000D02*
X73744000Y-92456000D01*
X73898000Y-80500000D02*
X74440000Y-80500000D01*
X74440000Y-80500000D02*
X82042000Y-72898000D01*
X82042000Y-72898000D02*
X81754000Y-72898000D01*
X73398000Y-80500000D02*
X73398000Y-76716000D01*
X73398000Y-76716000D02*
X77470000Y-72644000D01*
X72898000Y-80754000D02*
X72898000Y-72898000D01*
X72398000Y-80500000D02*
X72398000Y-76716000D01*
X72398000Y-76716000D02*
X68326000Y-72644000D01*
X71898000Y-80500000D02*
X71356000Y-80500000D01*
X71356000Y-80500000D02*
X63754000Y-72898000D01*
D19*
G36*
X84919790Y-85318871D02*
X80844000Y-85318871D01*
X80713108Y-85343500D01*
X80592893Y-85420857D01*
X80512244Y-85538890D01*
X80483871Y-85679000D01*
X80483871Y-87079000D01*
X80508500Y-87209892D01*
X80585857Y-87330107D01*
X80703890Y-87410756D01*
X80844000Y-87439129D01*
X84919790Y-87439129D01*
X84919790Y-88093871D01*
X80844000Y-88093871D01*
X80807229Y-88100790D01*
X76388000Y-88100790D01*
X75984954Y-88180961D01*
X75643268Y-88409268D01*
X75636851Y-88418871D01*
X75280000Y-88418871D01*
X75149108Y-88443500D01*
X75028893Y-88520857D01*
X74948244Y-88638890D01*
X74930372Y-88727145D01*
X74915500Y-88648108D01*
X74838143Y-88527893D01*
X74720110Y-88447244D01*
X74598590Y-88422636D01*
X74375409Y-84572327D01*
X74373129Y-84563554D01*
X74373129Y-84125000D01*
X74348500Y-83994108D01*
X74271143Y-83873893D01*
X74153110Y-83793244D01*
X74013000Y-83764871D01*
X73783000Y-83764871D01*
X73652108Y-83789500D01*
X73531893Y-83866857D01*
X73451244Y-83984890D01*
X73422871Y-84125000D01*
X73422871Y-84611310D01*
X73420591Y-84627673D01*
X73422871Y-84667007D01*
X73422871Y-85075000D01*
X73447500Y-85205892D01*
X73454761Y-85217176D01*
X73640346Y-88418871D01*
X73380000Y-88418871D01*
X73249108Y-88443500D01*
X73128893Y-88520857D01*
X73048244Y-88638890D01*
X73019871Y-88779000D01*
X73019871Y-89529000D01*
X73044500Y-89659892D01*
X73121857Y-89780107D01*
X73239890Y-89860756D01*
X73380000Y-89889129D01*
X74580000Y-89889129D01*
X74710892Y-89864500D01*
X74831107Y-89787143D01*
X74911756Y-89669110D01*
X74929628Y-89580855D01*
X74944500Y-89659892D01*
X75021857Y-89780107D01*
X75139890Y-89860756D01*
X75280000Y-89889129D01*
X75636851Y-89889129D01*
X75643268Y-89898732D01*
X75984954Y-90127039D01*
X76388000Y-90207210D01*
X80809833Y-90207210D01*
X80844000Y-90214129D01*
X84919790Y-90214129D01*
X84919790Y-90868871D01*
X80844000Y-90868871D01*
X80713108Y-90893500D01*
X80592893Y-90970857D01*
X80512244Y-91088890D01*
X80483871Y-91229000D01*
X80483871Y-92629000D01*
X80508500Y-92759892D01*
X80585857Y-92880107D01*
X80703890Y-92960756D01*
X80844000Y-92989129D01*
X84919790Y-92989129D01*
X84919790Y-94919790D01*
X60480210Y-94919790D01*
X60480210Y-92989129D01*
X64643000Y-92989129D01*
X64773892Y-92964500D01*
X64894107Y-92887143D01*
X64974756Y-92769110D01*
X65003129Y-92629000D01*
X65003129Y-91229000D01*
X64978500Y-91098108D01*
X64901143Y-90977893D01*
X64783110Y-90897244D01*
X64643000Y-90868871D01*
X60480210Y-90868871D01*
X60480210Y-90214129D01*
X64643000Y-90214129D01*
X64679771Y-90207210D01*
X69408000Y-90207210D01*
X69811046Y-90127039D01*
X70152732Y-89898732D01*
X70159149Y-89889129D01*
X70262000Y-89889129D01*
X70392892Y-89864500D01*
X70513107Y-89787143D01*
X70593756Y-89669110D01*
X70611628Y-89580855D01*
X70626500Y-89659892D01*
X70703857Y-89780107D01*
X70821890Y-89860756D01*
X70962000Y-89889129D01*
X71083790Y-89889129D01*
X71083790Y-91645871D01*
X70944000Y-91645871D01*
X70813108Y-91670500D01*
X70692893Y-91747857D01*
X70612244Y-91865890D01*
X70583871Y-92006000D01*
X70583871Y-92906000D01*
X70608500Y-93036892D01*
X70685857Y-93157107D01*
X70803890Y-93237756D01*
X70944000Y-93266129D01*
X72144000Y-93266129D01*
X72274892Y-93241500D01*
X72395107Y-93164143D01*
X72475756Y-93046110D01*
X72504129Y-92906000D01*
X72504129Y-92006000D01*
X72783871Y-92006000D01*
X72783871Y-92906000D01*
X72808500Y-93036892D01*
X72885857Y-93157107D01*
X73003890Y-93237756D01*
X73144000Y-93266129D01*
X74344000Y-93266129D01*
X74474892Y-93241500D01*
X74595107Y-93164143D01*
X74675756Y-93046110D01*
X74698416Y-92934210D01*
X75949417Y-92934210D01*
X76068135Y-93221531D01*
X76448467Y-93602527D01*
X76945649Y-93808975D01*
X77483989Y-93809444D01*
X77981531Y-93603865D01*
X78362527Y-93223533D01*
X78568975Y-92726351D01*
X78569444Y-92188011D01*
X78363865Y-91690469D01*
X77983533Y-91309473D01*
X77486351Y-91103025D01*
X76948011Y-91102556D01*
X76450469Y-91308135D01*
X76069473Y-91688467D01*
X75949336Y-91977790D01*
X74698821Y-91977790D01*
X74679500Y-91875108D01*
X74602143Y-91754893D01*
X74484110Y-91674244D01*
X74344000Y-91645871D01*
X73144000Y-91645871D01*
X73013108Y-91670500D01*
X72892893Y-91747857D01*
X72812244Y-91865890D01*
X72783871Y-92006000D01*
X72504129Y-92006000D01*
X72479500Y-91875108D01*
X72402143Y-91754893D01*
X72284110Y-91674244D01*
X72144000Y-91645871D01*
X72040210Y-91645871D01*
X72040210Y-89889129D01*
X72162000Y-89889129D01*
X72292892Y-89864500D01*
X72413107Y-89787143D01*
X72493756Y-89669110D01*
X72522129Y-89529000D01*
X72522129Y-88779000D01*
X72497500Y-88648108D01*
X72420143Y-88527893D01*
X72302110Y-88447244D01*
X72162000Y-88418871D01*
X72160078Y-88418871D01*
X72341798Y-85219439D01*
X72344756Y-85215110D01*
X72373129Y-85075000D01*
X72373129Y-84667823D01*
X72375441Y-84627117D01*
X72373129Y-84610665D01*
X72373129Y-84125000D01*
X72348500Y-83994108D01*
X72271143Y-83873893D01*
X72153110Y-83793244D01*
X72013000Y-83764871D01*
X71783000Y-83764871D01*
X71652108Y-83789500D01*
X71531893Y-83866857D01*
X71451244Y-83984890D01*
X71422871Y-84125000D01*
X71422871Y-84563946D01*
X71420560Y-84572882D01*
X71202115Y-88418871D01*
X70962000Y-88418871D01*
X70831108Y-88443500D01*
X70710893Y-88520857D01*
X70630244Y-88638890D01*
X70612372Y-88727145D01*
X70597500Y-88648108D01*
X70520143Y-88527893D01*
X70402110Y-88447244D01*
X70262000Y-88418871D01*
X70159149Y-88418871D01*
X70152732Y-88409268D01*
X69811046Y-88180961D01*
X69408000Y-88100790D01*
X64677167Y-88100790D01*
X64643000Y-88093871D01*
X60480210Y-88093871D01*
X60480210Y-87439129D01*
X64643000Y-87439129D01*
X64773892Y-87414500D01*
X64894107Y-87337143D01*
X64974756Y-87219110D01*
X65003129Y-87079000D01*
X65003129Y-85679000D01*
X64978500Y-85548108D01*
X64901143Y-85427893D01*
X64783110Y-85347244D01*
X64643000Y-85318871D01*
X60480210Y-85318871D01*
X60480210Y-73165989D01*
X62400556Y-73165989D01*
X62606135Y-73663531D01*
X62986467Y-74044527D01*
X63483649Y-74250975D01*
X64021989Y-74251444D01*
X64311521Y-74131813D01*
X71017852Y-80838143D01*
X71017854Y-80838146D01*
X71172997Y-80941808D01*
X71203360Y-80947848D01*
X71356000Y-80978211D01*
X71356005Y-80978210D01*
X71423475Y-80978210D01*
X71447500Y-81105892D01*
X71524857Y-81226107D01*
X71642890Y-81306756D01*
X71783000Y-81335129D01*
X72013000Y-81335129D01*
X72143892Y-81310500D01*
X72148078Y-81307807D01*
X72283000Y-81335129D01*
X72513000Y-81335129D01*
X72643892Y-81310500D01*
X72648078Y-81307807D01*
X72783000Y-81335129D01*
X73013000Y-81335129D01*
X73143892Y-81310500D01*
X73148078Y-81307807D01*
X73283000Y-81335129D01*
X73513000Y-81335129D01*
X73643892Y-81310500D01*
X73648078Y-81307807D01*
X73783000Y-81335129D01*
X74013000Y-81335129D01*
X74143892Y-81310500D01*
X74264107Y-81233143D01*
X74344756Y-81115110D01*
X74372479Y-80978210D01*
X74439995Y-80978210D01*
X74440000Y-80978211D01*
X74623003Y-80941808D01*
X74778146Y-80838146D01*
X81484536Y-74131755D01*
X81771649Y-74250975D01*
X82309989Y-74251444D01*
X82807531Y-74045865D01*
X83188527Y-73665533D01*
X83394975Y-73168351D01*
X83395444Y-72630011D01*
X83189865Y-72132469D01*
X82809533Y-71751473D01*
X82312351Y-71545025D01*
X81774011Y-71544556D01*
X81276469Y-71750135D01*
X80895473Y-72130467D01*
X80689025Y-72627649D01*
X80688556Y-73165989D01*
X80808188Y-73455521D01*
X74351841Y-79911867D01*
X74348500Y-79894108D01*
X74271143Y-79773893D01*
X74153110Y-79693244D01*
X74013000Y-79664871D01*
X73876210Y-79664871D01*
X73876210Y-76914082D01*
X76733061Y-74057231D01*
X77199649Y-74250975D01*
X77737989Y-74251444D01*
X78235531Y-74045865D01*
X78616527Y-73665533D01*
X78822975Y-73168351D01*
X78823444Y-72630011D01*
X78617865Y-72132469D01*
X78237533Y-71751473D01*
X77740351Y-71545025D01*
X77202011Y-71544556D01*
X76704469Y-71750135D01*
X76323473Y-72130467D01*
X76117025Y-72627649D01*
X76116556Y-73165989D01*
X76161923Y-73275786D01*
X73376210Y-76061498D01*
X73376210Y-74164583D01*
X73663531Y-74045865D01*
X74044527Y-73665533D01*
X74250975Y-73168351D01*
X74251444Y-72630011D01*
X74045865Y-72132469D01*
X73665533Y-71751473D01*
X73168351Y-71545025D01*
X72630011Y-71544556D01*
X72132469Y-71750135D01*
X71751473Y-72130467D01*
X71545025Y-72627649D01*
X71544556Y-73165989D01*
X71750135Y-73663531D01*
X72130467Y-74044527D01*
X72419790Y-74164664D01*
X72419790Y-76061499D01*
X69634280Y-73275988D01*
X69678975Y-73168351D01*
X69679444Y-72630011D01*
X69473865Y-72132469D01*
X69093533Y-71751473D01*
X68596351Y-71545025D01*
X68058011Y-71544556D01*
X67560469Y-71750135D01*
X67179473Y-72130467D01*
X66973025Y-72627649D01*
X66972556Y-73165989D01*
X67178135Y-73663531D01*
X67558467Y-74044527D01*
X68055649Y-74250975D01*
X68593989Y-74251444D01*
X69063256Y-74057548D01*
X71919790Y-76914081D01*
X71919790Y-79664871D01*
X71783000Y-79664871D01*
X71652108Y-79689500D01*
X71531893Y-79766857D01*
X71451244Y-79884890D01*
X71445508Y-79913217D01*
X64987755Y-73455464D01*
X65106975Y-73168351D01*
X65107444Y-72630011D01*
X64901865Y-72132469D01*
X64521533Y-71751473D01*
X64024351Y-71545025D01*
X63486011Y-71544556D01*
X62988469Y-71750135D01*
X62607473Y-72130467D01*
X62401025Y-72627649D01*
X62400556Y-73165989D01*
X60480210Y-73165989D01*
X60480210Y-70480210D01*
X84919790Y-70480210D01*
X84919790Y-85318871D01*
X84919790Y-85318871D01*
G37*
X84919790Y-85318871D02*
X80844000Y-85318871D01*
X80713108Y-85343500D01*
X80592893Y-85420857D01*
X80512244Y-85538890D01*
X80483871Y-85679000D01*
X80483871Y-87079000D01*
X80508500Y-87209892D01*
X80585857Y-87330107D01*
X80703890Y-87410756D01*
X80844000Y-87439129D01*
X84919790Y-87439129D01*
X84919790Y-88093871D01*
X80844000Y-88093871D01*
X80807229Y-88100790D01*
X76388000Y-88100790D01*
X75984954Y-88180961D01*
X75643268Y-88409268D01*
X75636851Y-88418871D01*
X75280000Y-88418871D01*
X75149108Y-88443500D01*
X75028893Y-88520857D01*
X74948244Y-88638890D01*
X74930372Y-88727145D01*
X74915500Y-88648108D01*
X74838143Y-88527893D01*
X74720110Y-88447244D01*
X74598590Y-88422636D01*
X74375409Y-84572327D01*
X74373129Y-84563554D01*
X74373129Y-84125000D01*
X74348500Y-83994108D01*
X74271143Y-83873893D01*
X74153110Y-83793244D01*
X74013000Y-83764871D01*
X73783000Y-83764871D01*
X73652108Y-83789500D01*
X73531893Y-83866857D01*
X73451244Y-83984890D01*
X73422871Y-84125000D01*
X73422871Y-84611310D01*
X73420591Y-84627673D01*
X73422871Y-84667007D01*
X73422871Y-85075000D01*
X73447500Y-85205892D01*
X73454761Y-85217176D01*
X73640346Y-88418871D01*
X73380000Y-88418871D01*
X73249108Y-88443500D01*
X73128893Y-88520857D01*
X73048244Y-88638890D01*
X73019871Y-88779000D01*
X73019871Y-89529000D01*
X73044500Y-89659892D01*
X73121857Y-89780107D01*
X73239890Y-89860756D01*
X73380000Y-89889129D01*
X74580000Y-89889129D01*
X74710892Y-89864500D01*
X74831107Y-89787143D01*
X74911756Y-89669110D01*
X74929628Y-89580855D01*
X74944500Y-89659892D01*
X75021857Y-89780107D01*
X75139890Y-89860756D01*
X75280000Y-89889129D01*
X75636851Y-89889129D01*
X75643268Y-89898732D01*
X75984954Y-90127039D01*
X76388000Y-90207210D01*
X80809833Y-90207210D01*
X80844000Y-90214129D01*
X84919790Y-90214129D01*
X84919790Y-90868871D01*
X80844000Y-90868871D01*
X80713108Y-90893500D01*
X80592893Y-90970857D01*
X80512244Y-91088890D01*
X80483871Y-91229000D01*
X80483871Y-92629000D01*
X80508500Y-92759892D01*
X80585857Y-92880107D01*
X80703890Y-92960756D01*
X80844000Y-92989129D01*
X84919790Y-92989129D01*
X84919790Y-94919790D01*
X60480210Y-94919790D01*
X60480210Y-92989129D01*
X64643000Y-92989129D01*
X64773892Y-92964500D01*
X64894107Y-92887143D01*
X64974756Y-92769110D01*
X65003129Y-92629000D01*
X65003129Y-91229000D01*
X64978500Y-91098108D01*
X64901143Y-90977893D01*
X64783110Y-90897244D01*
X64643000Y-90868871D01*
X60480210Y-90868871D01*
X60480210Y-90214129D01*
X64643000Y-90214129D01*
X64679771Y-90207210D01*
X69408000Y-90207210D01*
X69811046Y-90127039D01*
X70152732Y-89898732D01*
X70159149Y-89889129D01*
X70262000Y-89889129D01*
X70392892Y-89864500D01*
X70513107Y-89787143D01*
X70593756Y-89669110D01*
X70611628Y-89580855D01*
X70626500Y-89659892D01*
X70703857Y-89780107D01*
X70821890Y-89860756D01*
X70962000Y-89889129D01*
X71083790Y-89889129D01*
X71083790Y-91645871D01*
X70944000Y-91645871D01*
X70813108Y-91670500D01*
X70692893Y-91747857D01*
X70612244Y-91865890D01*
X70583871Y-92006000D01*
X70583871Y-92906000D01*
X70608500Y-93036892D01*
X70685857Y-93157107D01*
X70803890Y-93237756D01*
X70944000Y-93266129D01*
X72144000Y-93266129D01*
X72274892Y-93241500D01*
X72395107Y-93164143D01*
X72475756Y-93046110D01*
X72504129Y-92906000D01*
X72504129Y-92006000D01*
X72783871Y-92006000D01*
X72783871Y-92906000D01*
X72808500Y-93036892D01*
X72885857Y-93157107D01*
X73003890Y-93237756D01*
X73144000Y-93266129D01*
X74344000Y-93266129D01*
X74474892Y-93241500D01*
X74595107Y-93164143D01*
X74675756Y-93046110D01*
X74698416Y-92934210D01*
X75949417Y-92934210D01*
X76068135Y-93221531D01*
X76448467Y-93602527D01*
X76945649Y-93808975D01*
X77483989Y-93809444D01*
X77981531Y-93603865D01*
X78362527Y-93223533D01*
X78568975Y-92726351D01*
X78569444Y-92188011D01*
X78363865Y-91690469D01*
X77983533Y-91309473D01*
X77486351Y-91103025D01*
X76948011Y-91102556D01*
X76450469Y-91308135D01*
X76069473Y-91688467D01*
X75949336Y-91977790D01*
X74698821Y-91977790D01*
X74679500Y-91875108D01*
X74602143Y-91754893D01*
X74484110Y-91674244D01*
X74344000Y-91645871D01*
X73144000Y-91645871D01*
X73013108Y-91670500D01*
X72892893Y-91747857D01*
X72812244Y-91865890D01*
X72783871Y-92006000D01*
X72504129Y-92006000D01*
X72479500Y-91875108D01*
X72402143Y-91754893D01*
X72284110Y-91674244D01*
X72144000Y-91645871D01*
X72040210Y-91645871D01*
X72040210Y-89889129D01*
X72162000Y-89889129D01*
X72292892Y-89864500D01*
X72413107Y-89787143D01*
X72493756Y-89669110D01*
X72522129Y-89529000D01*
X72522129Y-88779000D01*
X72497500Y-88648108D01*
X72420143Y-88527893D01*
X72302110Y-88447244D01*
X72162000Y-88418871D01*
X72160078Y-88418871D01*
X72341798Y-85219439D01*
X72344756Y-85215110D01*
X72373129Y-85075000D01*
X72373129Y-84667823D01*
X72375441Y-84627117D01*
X72373129Y-84610665D01*
X72373129Y-84125000D01*
X72348500Y-83994108D01*
X72271143Y-83873893D01*
X72153110Y-83793244D01*
X72013000Y-83764871D01*
X71783000Y-83764871D01*
X71652108Y-83789500D01*
X71531893Y-83866857D01*
X71451244Y-83984890D01*
X71422871Y-84125000D01*
X71422871Y-84563946D01*
X71420560Y-84572882D01*
X71202115Y-88418871D01*
X70962000Y-88418871D01*
X70831108Y-88443500D01*
X70710893Y-88520857D01*
X70630244Y-88638890D01*
X70612372Y-88727145D01*
X70597500Y-88648108D01*
X70520143Y-88527893D01*
X70402110Y-88447244D01*
X70262000Y-88418871D01*
X70159149Y-88418871D01*
X70152732Y-88409268D01*
X69811046Y-88180961D01*
X69408000Y-88100790D01*
X64677167Y-88100790D01*
X64643000Y-88093871D01*
X60480210Y-88093871D01*
X60480210Y-87439129D01*
X64643000Y-87439129D01*
X64773892Y-87414500D01*
X64894107Y-87337143D01*
X64974756Y-87219110D01*
X65003129Y-87079000D01*
X65003129Y-85679000D01*
X64978500Y-85548108D01*
X64901143Y-85427893D01*
X64783110Y-85347244D01*
X64643000Y-85318871D01*
X60480210Y-85318871D01*
X60480210Y-73165989D01*
X62400556Y-73165989D01*
X62606135Y-73663531D01*
X62986467Y-74044527D01*
X63483649Y-74250975D01*
X64021989Y-74251444D01*
X64311521Y-74131813D01*
X71017852Y-80838143D01*
X71017854Y-80838146D01*
X71172997Y-80941808D01*
X71203360Y-80947848D01*
X71356000Y-80978211D01*
X71356005Y-80978210D01*
X71423475Y-80978210D01*
X71447500Y-81105892D01*
X71524857Y-81226107D01*
X71642890Y-81306756D01*
X71783000Y-81335129D01*
X72013000Y-81335129D01*
X72143892Y-81310500D01*
X72148078Y-81307807D01*
X72283000Y-81335129D01*
X72513000Y-81335129D01*
X72643892Y-81310500D01*
X72648078Y-81307807D01*
X72783000Y-81335129D01*
X73013000Y-81335129D01*
X73143892Y-81310500D01*
X73148078Y-81307807D01*
X73283000Y-81335129D01*
X73513000Y-81335129D01*
X73643892Y-81310500D01*
X73648078Y-81307807D01*
X73783000Y-81335129D01*
X74013000Y-81335129D01*
X74143892Y-81310500D01*
X74264107Y-81233143D01*
X74344756Y-81115110D01*
X74372479Y-80978210D01*
X74439995Y-80978210D01*
X74440000Y-80978211D01*
X74623003Y-80941808D01*
X74778146Y-80838146D01*
X81484536Y-74131755D01*
X81771649Y-74250975D01*
X82309989Y-74251444D01*
X82807531Y-74045865D01*
X83188527Y-73665533D01*
X83394975Y-73168351D01*
X83395444Y-72630011D01*
X83189865Y-72132469D01*
X82809533Y-71751473D01*
X82312351Y-71545025D01*
X81774011Y-71544556D01*
X81276469Y-71750135D01*
X80895473Y-72130467D01*
X80689025Y-72627649D01*
X80688556Y-73165989D01*
X80808188Y-73455521D01*
X74351841Y-79911867D01*
X74348500Y-79894108D01*
X74271143Y-79773893D01*
X74153110Y-79693244D01*
X74013000Y-79664871D01*
X73876210Y-79664871D01*
X73876210Y-76914082D01*
X76733061Y-74057231D01*
X77199649Y-74250975D01*
X77737989Y-74251444D01*
X78235531Y-74045865D01*
X78616527Y-73665533D01*
X78822975Y-73168351D01*
X78823444Y-72630011D01*
X78617865Y-72132469D01*
X78237533Y-71751473D01*
X77740351Y-71545025D01*
X77202011Y-71544556D01*
X76704469Y-71750135D01*
X76323473Y-72130467D01*
X76117025Y-72627649D01*
X76116556Y-73165989D01*
X76161923Y-73275786D01*
X73376210Y-76061498D01*
X73376210Y-74164583D01*
X73663531Y-74045865D01*
X74044527Y-73665533D01*
X74250975Y-73168351D01*
X74251444Y-72630011D01*
X74045865Y-72132469D01*
X73665533Y-71751473D01*
X73168351Y-71545025D01*
X72630011Y-71544556D01*
X72132469Y-71750135D01*
X71751473Y-72130467D01*
X71545025Y-72627649D01*
X71544556Y-73165989D01*
X71750135Y-73663531D01*
X72130467Y-74044527D01*
X72419790Y-74164664D01*
X72419790Y-76061499D01*
X69634280Y-73275988D01*
X69678975Y-73168351D01*
X69679444Y-72630011D01*
X69473865Y-72132469D01*
X69093533Y-71751473D01*
X68596351Y-71545025D01*
X68058011Y-71544556D01*
X67560469Y-71750135D01*
X67179473Y-72130467D01*
X66973025Y-72627649D01*
X66972556Y-73165989D01*
X67178135Y-73663531D01*
X67558467Y-74044527D01*
X68055649Y-74250975D01*
X68593989Y-74251444D01*
X69063256Y-74057548D01*
X71919790Y-76914081D01*
X71919790Y-79664871D01*
X71783000Y-79664871D01*
X71652108Y-79689500D01*
X71531893Y-79766857D01*
X71451244Y-79884890D01*
X71445508Y-79913217D01*
X64987755Y-73455464D01*
X65106975Y-73168351D01*
X65107444Y-72630011D01*
X64901865Y-72132469D01*
X64521533Y-71751473D01*
X64024351Y-71545025D01*
X63486011Y-71544556D01*
X62988469Y-71750135D01*
X62607473Y-72130467D01*
X62401025Y-72627649D01*
X62400556Y-73165989D01*
X60480210Y-73165989D01*
X60480210Y-70480210D01*
X84919790Y-70480210D01*
X84919790Y-85318871D01*
M02*
